<mxfile host="app.diagrams.net" modified="2023-08-29T08:57:20.527Z" agent="Mozilla/5.0 (Macintosh; Intel Mac OS X 10_15_7) AppleWebKit/605.1.15 (KHTML, like Gecko) Version/16.6 Safari/605.1.15" etag="wmnUDIjpzhcnYk_VD6B6" version="21.6.9" type="device">
  <diagram name="第 1 页" id="oxgCnOa9_QtBa9hEsKKn">
    <mxGraphModel dx="954" dy="567" grid="1" gridSize="10" guides="1" tooltips="1" connect="1" arrows="1" fold="1" page="1" pageScale="1" pageWidth="827" pageHeight="1169" math="0" shadow="0">
      <root>
        <mxCell id="0" />
        <mxCell id="1" parent="0" />
        <mxCell id="oyHPuE9z8B__u28nlVka-3" value="" style="edgeStyle=orthogonalEdgeStyle;rounded=0;orthogonalLoop=1;jettySize=auto;html=1;" edge="1" parent="1" source="oyHPuE9z8B__u28nlVka-1" target="oyHPuE9z8B__u28nlVka-2">
          <mxGeometry relative="1" as="geometry" />
        </mxCell>
        <mxCell id="oyHPuE9z8B__u28nlVka-1" value="&lt;font style=&quot;font-size: 20px;&quot;&gt;會員登入&lt;/font&gt;" style="rounded=1;whiteSpace=wrap;html=1;glass=0;shadow=0;arcSize=50;" vertex="1" parent="1">
          <mxGeometry x="354" y="80" width="116" height="50" as="geometry" />
        </mxCell>
        <mxCell id="oyHPuE9z8B__u28nlVka-2" value="登入頁面" style="rounded=0;whiteSpace=wrap;html=1;fontSize=20;" vertex="1" parent="1">
          <mxGeometry x="352" y="200" width="120" height="60" as="geometry" />
        </mxCell>
        <mxCell id="oyHPuE9z8B__u28nlVka-4" value="帳號" style="shape=parallelogram;perimeter=parallelogramPerimeter;whiteSpace=wrap;html=1;fixedSize=1;fontSize=20;" vertex="1" parent="1">
          <mxGeometry x="354" y="280" width="120" height="60" as="geometry" />
        </mxCell>
        <mxCell id="oyHPuE9z8B__u28nlVka-5" value="密碼" style="shape=parallelogram;perimeter=parallelogramPerimeter;whiteSpace=wrap;html=1;fixedSize=1;fontSize=20;" vertex="1" parent="1">
          <mxGeometry x="354" y="350" width="120" height="60" as="geometry" />
        </mxCell>
        <mxCell id="oyHPuE9z8B__u28nlVka-44" value="" style="edgeStyle=orthogonalEdgeStyle;rounded=0;orthogonalLoop=1;jettySize=auto;html=1;" edge="1" parent="1" source="oyHPuE9z8B__u28nlVka-6" target="oyHPuE9z8B__u28nlVka-8">
          <mxGeometry relative="1" as="geometry" />
        </mxCell>
        <mxCell id="oyHPuE9z8B__u28nlVka-6" value="驗證碼" style="shape=parallelogram;perimeter=parallelogramPerimeter;whiteSpace=wrap;html=1;fixedSize=1;fontSize=20;" vertex="1" parent="1">
          <mxGeometry x="350" y="430" width="120" height="60" as="geometry" />
        </mxCell>
        <mxCell id="oyHPuE9z8B__u28nlVka-11" value="&lt;font style=&quot;font-size: 20px;&quot;&gt;否&lt;/font&gt;" style="edgeStyle=orthogonalEdgeStyle;rounded=0;orthogonalLoop=1;jettySize=auto;html=1;" edge="1" parent="1" source="oyHPuE9z8B__u28nlVka-8" target="oyHPuE9z8B__u28nlVka-10">
          <mxGeometry relative="1" as="geometry" />
        </mxCell>
        <mxCell id="oyHPuE9z8B__u28nlVka-13" value="" style="edgeStyle=orthogonalEdgeStyle;rounded=0;orthogonalLoop=1;jettySize=auto;html=1;" edge="1" parent="1" source="oyHPuE9z8B__u28nlVka-8" target="oyHPuE9z8B__u28nlVka-9">
          <mxGeometry relative="1" as="geometry" />
        </mxCell>
        <mxCell id="oyHPuE9z8B__u28nlVka-14" value="&lt;font style=&quot;font-size: 20px;&quot;&gt;是&lt;/font&gt;" style="edgeLabel;html=1;align=center;verticalAlign=middle;resizable=0;points=[];" vertex="1" connectable="0" parent="oyHPuE9z8B__u28nlVka-13">
          <mxGeometry x="-0.0824" y="3" relative="1" as="geometry">
            <mxPoint as="offset" />
          </mxGeometry>
        </mxCell>
        <mxCell id="oyHPuE9z8B__u28nlVka-8" value="帳密是否正確" style="rhombus;whiteSpace=wrap;html=1;fontSize=20;" vertex="1" parent="1">
          <mxGeometry x="339" y="520" width="150" height="80" as="geometry" />
        </mxCell>
        <mxCell id="oyHPuE9z8B__u28nlVka-37" value="" style="edgeStyle=orthogonalEdgeStyle;rounded=0;orthogonalLoop=1;jettySize=auto;html=1;" edge="1" parent="1" source="oyHPuE9z8B__u28nlVka-9" target="oyHPuE9z8B__u28nlVka-36">
          <mxGeometry relative="1" as="geometry" />
        </mxCell>
        <mxCell id="oyHPuE9z8B__u28nlVka-9" value="&lt;font style=&quot;font-size: 20px;&quot;&gt;會員登入成功&lt;/font&gt;" style="rounded=1;whiteSpace=wrap;html=1;glass=0;shadow=0;arcSize=50;" vertex="1" parent="1">
          <mxGeometry x="348" y="690" width="132" height="50" as="geometry" />
        </mxCell>
        <mxCell id="oyHPuE9z8B__u28nlVka-15" style="edgeStyle=orthogonalEdgeStyle;rounded=0;orthogonalLoop=1;jettySize=auto;html=1;entryX=1;entryY=0.5;entryDx=0;entryDy=0;exitX=0.433;exitY=0;exitDx=0;exitDy=0;exitPerimeter=0;" edge="1" parent="1" source="oyHPuE9z8B__u28nlVka-10" target="oyHPuE9z8B__u28nlVka-2">
          <mxGeometry relative="1" as="geometry">
            <mxPoint x="798" y="605" as="sourcePoint" />
            <mxPoint x="660" y="240" as="targetPoint" />
          </mxGeometry>
        </mxCell>
        <mxCell id="oyHPuE9z8B__u28nlVka-10" value="錯誤資訊" style="rounded=0;whiteSpace=wrap;html=1;fontSize=20;" vertex="1" parent="1">
          <mxGeometry x="550" y="530" width="120" height="60" as="geometry" />
        </mxCell>
        <mxCell id="oyHPuE9z8B__u28nlVka-23" value="" style="edgeStyle=orthogonalEdgeStyle;rounded=0;orthogonalLoop=1;jettySize=auto;html=1;" edge="1" parent="1" source="oyHPuE9z8B__u28nlVka-16" target="oyHPuE9z8B__u28nlVka-17">
          <mxGeometry relative="1" as="geometry" />
        </mxCell>
        <mxCell id="oyHPuE9z8B__u28nlVka-16" value="&lt;font style=&quot;font-size: 20px;&quot;&gt;會員註冊&lt;/font&gt;" style="rounded=1;whiteSpace=wrap;html=1;glass=0;shadow=0;arcSize=50;" vertex="1" parent="1">
          <mxGeometry x="146" y="80" width="116" height="50" as="geometry" />
        </mxCell>
        <mxCell id="oyHPuE9z8B__u28nlVka-17" value="註冊頁面" style="rounded=0;whiteSpace=wrap;html=1;fontSize=20;" vertex="1" parent="1">
          <mxGeometry x="144" y="160" width="120" height="60" as="geometry" />
        </mxCell>
        <mxCell id="oyHPuE9z8B__u28nlVka-18" value="帳號" style="shape=parallelogram;perimeter=parallelogramPerimeter;whiteSpace=wrap;html=1;fixedSize=1;fontSize=20;" vertex="1" parent="1">
          <mxGeometry x="144" y="240" width="120" height="60" as="geometry" />
        </mxCell>
        <mxCell id="oyHPuE9z8B__u28nlVka-19" value="密碼" style="shape=parallelogram;perimeter=parallelogramPerimeter;whiteSpace=wrap;html=1;fixedSize=1;fontSize=20;" vertex="1" parent="1">
          <mxGeometry x="144" y="310" width="120" height="60" as="geometry" />
        </mxCell>
        <mxCell id="oyHPuE9z8B__u28nlVka-22" value="" style="edgeStyle=orthogonalEdgeStyle;rounded=0;orthogonalLoop=1;jettySize=auto;html=1;" edge="1" parent="1" source="oyHPuE9z8B__u28nlVka-20" target="oyHPuE9z8B__u28nlVka-21">
          <mxGeometry relative="1" as="geometry" />
        </mxCell>
        <mxCell id="oyHPuE9z8B__u28nlVka-20" value="二次密碼" style="shape=parallelogram;perimeter=parallelogramPerimeter;whiteSpace=wrap;html=1;fixedSize=1;fontSize=20;" vertex="1" parent="1">
          <mxGeometry x="140" y="380" width="120" height="60" as="geometry" />
        </mxCell>
        <mxCell id="oyHPuE9z8B__u28nlVka-26" style="edgeStyle=orthogonalEdgeStyle;rounded=0;orthogonalLoop=1;jettySize=auto;html=1;entryX=0;entryY=0.5;entryDx=0;entryDy=0;" edge="1" parent="1" source="oyHPuE9z8B__u28nlVka-21" target="oyHPuE9z8B__u28nlVka-2">
          <mxGeometry relative="1" as="geometry" />
        </mxCell>
        <mxCell id="oyHPuE9z8B__u28nlVka-21" value="&lt;span style=&quot;font-size: 20px;&quot;&gt;註冊成功&lt;br&gt;&lt;/span&gt;" style="rounded=1;whiteSpace=wrap;html=1;glass=0;shadow=0;arcSize=50;" vertex="1" parent="1">
          <mxGeometry x="142" y="490" width="116" height="50" as="geometry" />
        </mxCell>
        <mxCell id="oyHPuE9z8B__u28nlVka-27" value="" style="edgeStyle=orthogonalEdgeStyle;rounded=0;orthogonalLoop=1;jettySize=auto;html=1;" edge="1" parent="1" source="oyHPuE9z8B__u28nlVka-28" target="oyHPuE9z8B__u28nlVka-29">
          <mxGeometry relative="1" as="geometry" />
        </mxCell>
        <mxCell id="oyHPuE9z8B__u28nlVka-28" value="&lt;span style=&quot;font-size: 20px;&quot;&gt;忘記密碼&lt;/span&gt;" style="rounded=1;whiteSpace=wrap;html=1;glass=0;shadow=0;arcSize=50;" vertex="1" parent="1">
          <mxGeometry x="689" y="80" width="116" height="50" as="geometry" />
        </mxCell>
        <mxCell id="oyHPuE9z8B__u28nlVka-29" value="發送MAIL頁面" style="rounded=0;whiteSpace=wrap;html=1;fontSize=20;" vertex="1" parent="1">
          <mxGeometry x="680" y="160" width="134" height="60" as="geometry" />
        </mxCell>
        <mxCell id="oyHPuE9z8B__u28nlVka-30" value="帳號" style="shape=parallelogram;perimeter=parallelogramPerimeter;whiteSpace=wrap;html=1;fixedSize=1;fontSize=20;" vertex="1" parent="1">
          <mxGeometry x="694" y="240" width="120" height="60" as="geometry" />
        </mxCell>
        <mxCell id="oyHPuE9z8B__u28nlVka-31" value="密碼" style="shape=parallelogram;perimeter=parallelogramPerimeter;whiteSpace=wrap;html=1;fixedSize=1;fontSize=20;" vertex="1" parent="1">
          <mxGeometry x="694" y="310" width="120" height="60" as="geometry" />
        </mxCell>
        <mxCell id="oyHPuE9z8B__u28nlVka-32" value="" style="edgeStyle=orthogonalEdgeStyle;rounded=0;orthogonalLoop=1;jettySize=auto;html=1;" edge="1" parent="1" source="oyHPuE9z8B__u28nlVka-33" target="oyHPuE9z8B__u28nlVka-34">
          <mxGeometry relative="1" as="geometry" />
        </mxCell>
        <mxCell id="oyHPuE9z8B__u28nlVka-33" value="驗證碼" style="shape=parallelogram;perimeter=parallelogramPerimeter;whiteSpace=wrap;html=1;fixedSize=1;fontSize=20;" vertex="1" parent="1">
          <mxGeometry x="690" y="380" width="120" height="60" as="geometry" />
        </mxCell>
        <mxCell id="oyHPuE9z8B__u28nlVka-35" style="edgeStyle=orthogonalEdgeStyle;rounded=0;orthogonalLoop=1;jettySize=auto;html=1;" edge="1" parent="1" source="oyHPuE9z8B__u28nlVka-34">
          <mxGeometry relative="1" as="geometry">
            <mxPoint x="412" y="160" as="targetPoint" />
            <Array as="points">
              <mxPoint x="650" y="505" />
              <mxPoint x="650" y="160" />
            </Array>
          </mxGeometry>
        </mxCell>
        <mxCell id="oyHPuE9z8B__u28nlVka-34" value="&lt;span style=&quot;font-size: 20px;&quot;&gt;寄送成功&lt;br&gt;&lt;/span&gt;" style="rounded=1;whiteSpace=wrap;html=1;glass=0;shadow=0;arcSize=50;" vertex="1" parent="1">
          <mxGeometry x="692" y="480" width="116" height="50" as="geometry" />
        </mxCell>
        <mxCell id="oyHPuE9z8B__u28nlVka-36" value="訂位首頁" style="whiteSpace=wrap;html=1;rounded=1;glass=0;shadow=0;arcSize=50;fontSize=20;" vertex="1" parent="1">
          <mxGeometry x="346" y="770" width="136" height="60" as="geometry" />
        </mxCell>
        <mxCell id="oyHPuE9z8B__u28nlVka-38" value="日期" style="shape=parallelogram;perimeter=parallelogramPerimeter;whiteSpace=wrap;html=1;fixedSize=1;fontSize=20;" vertex="1" parent="1">
          <mxGeometry x="274" y="850" width="116" height="60" as="geometry" />
        </mxCell>
        <mxCell id="oyHPuE9z8B__u28nlVka-39" value="姓名" style="shape=parallelogram;perimeter=parallelogramPerimeter;whiteSpace=wrap;html=1;fixedSize=1;fontSize=20;" vertex="1" parent="1">
          <mxGeometry x="434" y="850" width="120" height="60" as="geometry" />
        </mxCell>
        <mxCell id="oyHPuE9z8B__u28nlVka-40" value="電話" style="shape=parallelogram;perimeter=parallelogramPerimeter;whiteSpace=wrap;html=1;fixedSize=1;fontSize=20;" vertex="1" parent="1">
          <mxGeometry x="594" y="850" width="116" height="60" as="geometry" />
        </mxCell>
        <mxCell id="oyHPuE9z8B__u28nlVka-41" value="人數" style="shape=parallelogram;perimeter=parallelogramPerimeter;whiteSpace=wrap;html=1;fixedSize=1;fontSize=20;" vertex="1" parent="1">
          <mxGeometry x="114" y="850" width="120" height="60" as="geometry" />
        </mxCell>
        <mxCell id="oyHPuE9z8B__u28nlVka-48" value="大" style="shape=parallelogram;perimeter=parallelogramPerimeter;whiteSpace=wrap;html=1;fixedSize=1;fontSize=20;" vertex="1" parent="1">
          <mxGeometry x="110" y="930" width="120" height="60" as="geometry" />
        </mxCell>
        <mxCell id="oyHPuE9z8B__u28nlVka-52" value="&lt;font style=&quot;font-size: 20px;&quot;&gt;小&lt;/font&gt;" style="shape=parallelogram;perimeter=parallelogramPerimeter;whiteSpace=wrap;html=1;fixedSize=1;" vertex="1" parent="1">
          <mxGeometry x="110" y="1010" width="120" height="60" as="geometry" />
        </mxCell>
        <mxCell id="oyHPuE9z8B__u28nlVka-53" value="訂位完成" style="whiteSpace=wrap;html=1;rounded=1;glass=0;shadow=0;arcSize=50;fontSize=20;" vertex="1" parent="1">
          <mxGeometry x="342" y="1470" width="136" height="60" as="geometry" />
        </mxCell>
        <mxCell id="oyHPuE9z8B__u28nlVka-58" style="edgeStyle=orthogonalEdgeStyle;rounded=0;orthogonalLoop=1;jettySize=auto;html=1;" edge="1" parent="1" source="oyHPuE9z8B__u28nlVka-54" target="oyHPuE9z8B__u28nlVka-36">
          <mxGeometry relative="1" as="geometry">
            <mxPoint x="750" y="760" as="targetPoint" />
            <Array as="points">
              <mxPoint x="780" y="1150" />
              <mxPoint x="780" y="800" />
            </Array>
          </mxGeometry>
        </mxCell>
        <mxCell id="oyHPuE9z8B__u28nlVka-59" value="&lt;font style=&quot;font-size: 20px;&quot;&gt;否&lt;/font&gt;" style="edgeLabel;html=1;align=center;verticalAlign=middle;resizable=0;points=[];" vertex="1" connectable="0" parent="oyHPuE9z8B__u28nlVka-58">
          <mxGeometry x="-0.0095" relative="1" as="geometry">
            <mxPoint as="offset" />
          </mxGeometry>
        </mxCell>
        <mxCell id="oyHPuE9z8B__u28nlVka-67" value="" style="edgeStyle=orthogonalEdgeStyle;rounded=0;orthogonalLoop=1;jettySize=auto;html=1;" edge="1" parent="1" source="oyHPuE9z8B__u28nlVka-54" target="oyHPuE9z8B__u28nlVka-66">
          <mxGeometry relative="1" as="geometry" />
        </mxCell>
        <mxCell id="oyHPuE9z8B__u28nlVka-70" value="&lt;font style=&quot;font-size: 20px;&quot;&gt;是&lt;/font&gt;" style="edgeLabel;html=1;align=center;verticalAlign=middle;resizable=0;points=[];" vertex="1" connectable="0" parent="oyHPuE9z8B__u28nlVka-67">
          <mxGeometry x="0.0333" y="2" relative="1" as="geometry">
            <mxPoint as="offset" />
          </mxGeometry>
        </mxCell>
        <mxCell id="oyHPuE9z8B__u28nlVka-54" value="&lt;font style=&quot;font-size: 20px;&quot;&gt;確定是否訂位&lt;/font&gt;" style="rhombus;whiteSpace=wrap;html=1;" vertex="1" parent="1">
          <mxGeometry x="320" y="1110" width="180" height="80" as="geometry" />
        </mxCell>
        <mxCell id="oyHPuE9z8B__u28nlVka-69" value="" style="edgeStyle=orthogonalEdgeStyle;rounded=0;orthogonalLoop=1;jettySize=auto;html=1;" edge="1" parent="1" source="oyHPuE9z8B__u28nlVka-61" target="oyHPuE9z8B__u28nlVka-53">
          <mxGeometry relative="1" as="geometry" />
        </mxCell>
        <mxCell id="oyHPuE9z8B__u28nlVka-61" value="&lt;font style=&quot;font-size: 20px;&quot;&gt;評價&lt;/font&gt;" style="rounded=0;whiteSpace=wrap;html=1;" vertex="1" parent="1">
          <mxGeometry x="350" y="1370" width="120" height="60" as="geometry" />
        </mxCell>
        <mxCell id="oyHPuE9z8B__u28nlVka-65" value="" style="edgeStyle=orthogonalEdgeStyle;rounded=0;orthogonalLoop=1;jettySize=auto;html=1;" edge="1" parent="1" source="oyHPuE9z8B__u28nlVka-64" target="oyHPuE9z8B__u28nlVka-54">
          <mxGeometry relative="1" as="geometry" />
        </mxCell>
        <mxCell id="oyHPuE9z8B__u28nlVka-64" value="" style="rounded=0;whiteSpace=wrap;html=1;dashed=1;fillColor=none;" vertex="1" parent="1">
          <mxGeometry x="70" y="840" width="680" height="240" as="geometry" />
        </mxCell>
        <mxCell id="oyHPuE9z8B__u28nlVka-68" value="" style="edgeStyle=orthogonalEdgeStyle;rounded=0;orthogonalLoop=1;jettySize=auto;html=1;" edge="1" parent="1" source="oyHPuE9z8B__u28nlVka-66" target="oyHPuE9z8B__u28nlVka-61">
          <mxGeometry relative="1" as="geometry" />
        </mxCell>
        <mxCell id="oyHPuE9z8B__u28nlVka-66" value="&lt;span style=&quot;font-size: 20px;&quot;&gt;確認訂位&lt;/span&gt;" style="rounded=0;whiteSpace=wrap;html=1;" vertex="1" parent="1">
          <mxGeometry x="350" y="1270" width="120" height="60" as="geometry" />
        </mxCell>
      </root>
    </mxGraphModel>
  </diagram>
</mxfile>
